<?xml version='1.0' encoding='UTF-8'?>
<!--
  CANVAS  : 900 × 528
  WIDGETS:
    W1 Header   : x=16  y=16  w=580 h=110 rx=16
    W2 ZA naked : no box — dots at x=614..880 y=18..116 (no widget rect)
    W3 Left     : x=16  y=140 w=440 h=300 rx=16
    W4 Right    : x=468 y=140 w=416 h=300 rx=16
    W5 Footer   : x=16  y=452 w=868 h=60  rx=16

  ZA DOT MATRIX:
    2-dot-wide 5×7 LED font
    step=10px, r=3.5
    Row 0 starts at y=22, Row 1 at y=32 ... Row 15 at y=172 (but clipped to y=116)
    Using 8 rows (y: 22,32,42,52,62,72,82,92) for letter body
    Col origin x=614, step=10
    Z cols 0-8  (x: 614,624,634,644,654,664,674,684,694)
    Gap col 9   (x: 704)  ← red dot
    A cols 10-18 (x: 714,724,734,744,754,764,774,784,794)
    Star at ~x=860 y=95

    2-wide Z pixel map (9 cols × 9 rows, rows 0-1=topbar, 8-9 would be botbar):
    Since we have 8 row slots (y=22..92) we use:
      Rows 0,1: top bar (all 9 cols)
      Row  2:   right side  cols 7,8
      Row  3:   right-mid   cols 5,6,7,8 (stepping)
      Row  4:   mid         cols 4,5
      Row  5:   mid-left    cols 2,3,4,5
      Row  6:   left side   cols 0,1
      Rows 7,8: bottom bar  (all 9 cols)
    Total rows needed: 9 → too tall for 8 slots at step=10 (9×10=90px, fits in 110px widget)
    Use 9 rows: y=22,32,42,52,62,72,82,92,102

    2-wide A pixel map (9 cols × 9 rows):
      Row 0:   mid-peak cols 3,4,5 (slightly wider)
      Row 1:   peak     cols 2,3,4,5,6
      Row 2:   sides    cols 0,1 + 7,8
      Row 3:   sides    cols 0,1 + 7,8
      Row 4:   crossbar all cols 0-8
      Row 5:   crossbar all cols 0-8  (2-wide)
      Row 6:   sides    cols 0,1 + 7,8
      Row 7:   sides    cols 0,1 + 7,8
      Row 8:   sides    cols 0,1 + 7,8
-->
<svg xmlns="http://www.w3.org/2000/svg" viewBox="0 0 900 528" width="900" height="528">
<defs>
  <style>
    @import url('https://fonts.googleapis.com/css2?family=Doto:wght@600;800&amp;family=Inter:wght@400;500;600&amp;display=swap');
    .d-xl { font-family:'Doto',monospace; font-size:28px; font-weight:800; fill:#FFFFFF; letter-spacing:4px; }
    .d-lg { font-family:'Doto',monospace; font-size:20px; font-weight:800; fill:#FFFFFF; letter-spacing:1px; }
    .d-md { font-family:'Doto',monospace; font-size:13px; font-weight:600; fill:#FFFFFF; letter-spacing:2px; }
    .d-sm { font-family:'Doto',monospace; font-size:10px; font-weight:600; fill:#AAAAAA; letter-spacing:1.5px; }
    .lbl  { font-family:'Inter',sans-serif; font-size:9px;  font-weight:500; fill:#606060; letter-spacing:1.5px; }
    .val  { font-family:'Inter',sans-serif; font-size:12px; font-weight:600; fill:#E0E0E0; }
    .w    { fill:#0B0B0B; stroke:#1E1E1E; stroke-width:1; }
    .ln   { stroke:#1E1E1E; stroke-width:1; fill:none; }
  </style>
  <clipPath id="c-hdr"><rect x="16"  y="16"  width="580" height="110" rx="16"/></clipPath>
  <clipPath id="c-lft"><rect x="16"  y="140" width="440" height="300" rx="16"/></clipPath>
  <clipPath id="c-rgt"><rect x="468" y="140" width="416" height="300" rx="16"/></clipPath>
  <clipPath id="c-ftr"><rect x="16"  y="452" width="868" height="60"  rx="16"/></clipPath>
</defs>

<!-- TRUE BLACK BACKGROUND -->
<rect width="900" height="528" fill="#000000"/>

<!-- ═══════════════════════════════════════════════════════
     W1 — HEADER  x=16 y=16 w=580 h=110
     2×2 grid: OS | COLLEGE / KERNEL | IDE
     ═══════════════════════════════════════════════════════ -->
<rect x="16" y="16" width="580" height="110" rx="16" class="w"/>
<g clip-path="url(#c-hdr)">
  <circle cx="44" cy="47" r="5" fill="#FF2E2E"/>
  <text x="60" y="54" class="d-xl">ZAID AHMAD</text>
  <line x1="28" y1="65" x2="584" y2="65" class="ln"/>
  <line x1="296" y1="67" x2="296" y2="124" class="ln"/>
  <line x1="28"  y1="98" x2="584" y2="98"  class="ln"/>
  <text x="36"  y="79"  class="lbl">OS</text>
  <text x="36"  y="93"  class="d-sm">Windows 11  //  Pop!_OS</text>
  <text x="308" y="79"  class="lbl">COLLEGE</text>
  <text x="308" y="93"  class="d-sm">Ramaiah Inst. of Tech. // CSE</text>
  <text x="36"  y="112" class="lbl">KERNEL</text>
  <text x="36"  y="123" class="d-sm">Student</text>
  <text x="308" y="112" class="lbl">IDE</text>
  <text x="308" y="123" class="d-sm">VS Code  //  Kiro</text>
</g>

<!-- ═══════════════════════════════════════════════════════
     W2 — ZA DOT MATRIX  NAKED (no widget box, no border)
     Floats in gap x=608..884 y=16..126
     step=10px, r=3.5
     Grid: 28 cols × 11 rows
     col_x = 614 + col*10   (col 0..27)
     row_y = 22  + row*10   (row 0..10)

     col map:
       c0=614  c1=624  c2=634  c3=644  c4=654  c5=664  c6=674  c7=684  c8=694
       c9=704  ← gap/red dot
       c10=714 c11=724 c12=734 c13=744 c14=754 c15=764 c16=774 c17=784 c18=794
       star at x=860 y=102

     row map: r0=22 r1=32 r2=42 r3=52 r4=62 r5=72 r6=82 r7=92 r8=102

     Z (cols 0-8, rows 0-8):
       2-wide top bar:  r0,r1 all cols 0-8
       diagonal step 1: r2 cols 6,7,8
       diagonal step 2: r3 cols 4,5,6
       diagonal step 3: r4 cols 3,4,5
       diagonal step 4: r5 cols 1,2,3
       diagonal step 5: r6 cols 0,1,2
       2-wide bot bar:  r7,r8 all cols 0-8

     A (cols 10-18, rows 0-8):
       2-wide peak:  r0 cols 13,14,15  r1 cols 12,13,14,15,16
       sides r2-r3:  cols 10,11 and 17,18
       2-wide crossbar: r4,r5 all cols 10-18
       sides r6-r8:  cols 10,11 and 17,18
     ═══════════════════════════════════════════════════════ -->

<!-- Background dim dots — full 28×11 grid (y=12..112, top row added for vertical symmetry) -->
<g fill="#1E1E1E">
  <circle cx="614" cy="12" r="3.5"/><circle cx="624" cy="12" r="3.5"/><circle cx="634" cy="12" r="3.5"/><circle cx="644" cy="12" r="3.5"/><circle cx="654" cy="12" r="3.5"/><circle cx="664" cy="12" r="3.5"/><circle cx="674" cy="12" r="3.5"/><circle cx="684" cy="12" r="3.5"/><circle cx="694" cy="12" r="3.5"/><circle cx="704" cy="12" r="3.5"/><circle cx="714" cy="12" r="3.5"/><circle cx="724" cy="12" r="3.5"/><circle cx="734" cy="12" r="3.5"/><circle cx="744" cy="12" r="3.5"/><circle cx="754" cy="12" r="3.5"/><circle cx="764" cy="12" r="3.5"/><circle cx="774" cy="12" r="3.5"/><circle cx="784" cy="12" r="3.5"/><circle cx="794" cy="12" r="3.5"/><circle cx="804" cy="12" r="3.5"/><circle cx="814" cy="12" r="3.5"/><circle cx="824" cy="12" r="3.5"/><circle cx="834" cy="12" r="3.5"/><circle cx="844" cy="12" r="3.5"/><circle cx="854" cy="12" r="3.5"/><circle cx="864" cy="12" r="3.5"/><circle cx="874" cy="12" r="3.5"/><circle cx="884" cy="12" r="3.5"/>
  <circle cx="614" cy="22" r="3.5"/><circle cx="624" cy="22" r="3.5"/><circle cx="634" cy="22" r="3.5"/><circle cx="644" cy="22" r="3.5"/><circle cx="654" cy="22" r="3.5"/><circle cx="664" cy="22" r="3.5"/><circle cx="674" cy="22" r="3.5"/><circle cx="684" cy="22" r="3.5"/><circle cx="694" cy="22" r="3.5"/><circle cx="704" cy="22" r="3.5"/><circle cx="714" cy="22" r="3.5"/><circle cx="724" cy="22" r="3.5"/><circle cx="734" cy="22" r="3.5"/><circle cx="744" cy="22" r="3.5"/><circle cx="754" cy="22" r="3.5"/><circle cx="764" cy="22" r="3.5"/><circle cx="774" cy="22" r="3.5"/><circle cx="784" cy="22" r="3.5"/><circle cx="794" cy="22" r="3.5"/><circle cx="804" cy="22" r="3.5"/><circle cx="814" cy="22" r="3.5"/><circle cx="824" cy="22" r="3.5"/><circle cx="834" cy="22" r="3.5"/><circle cx="844" cy="22" r="3.5"/><circle cx="854" cy="22" r="3.5"/><circle cx="864" cy="22" r="3.5"/><circle cx="874" cy="22" r="3.5"/><circle cx="884" cy="22" r="3.5"/>
  <circle cx="614" cy="32" r="3.5"/><circle cx="624" cy="32" r="3.5"/><circle cx="634" cy="32" r="3.5"/><circle cx="644" cy="32" r="3.5"/><circle cx="654" cy="32" r="3.5"/><circle cx="664" cy="32" r="3.5"/><circle cx="674" cy="32" r="3.5"/><circle cx="684" cy="32" r="3.5"/><circle cx="694" cy="32" r="3.5"/><circle cx="704" cy="32" r="3.5"/><circle cx="714" cy="32" r="3.5"/><circle cx="724" cy="32" r="3.5"/><circle cx="734" cy="32" r="3.5"/><circle cx="744" cy="32" r="3.5"/><circle cx="754" cy="32" r="3.5"/><circle cx="764" cy="32" r="3.5"/><circle cx="774" cy="32" r="3.5"/><circle cx="784" cy="32" r="3.5"/><circle cx="794" cy="32" r="3.5"/><circle cx="804" cy="32" r="3.5"/><circle cx="814" cy="32" r="3.5"/><circle cx="824" cy="32" r="3.5"/><circle cx="834" cy="32" r="3.5"/><circle cx="844" cy="32" r="3.5"/><circle cx="854" cy="32" r="3.5"/><circle cx="864" cy="32" r="3.5"/><circle cx="874" cy="32" r="3.5"/><circle cx="884" cy="32" r="3.5"/>
  <circle cx="614" cy="42" r="3.5"/><circle cx="624" cy="42" r="3.5"/><circle cx="634" cy="42" r="3.5"/><circle cx="644" cy="42" r="3.5"/><circle cx="654" cy="42" r="3.5"/><circle cx="664" cy="42" r="3.5"/><circle cx="674" cy="42" r="3.5"/><circle cx="684" cy="42" r="3.5"/><circle cx="694" cy="42" r="3.5"/><circle cx="704" cy="42" r="3.5"/><circle cx="714" cy="42" r="3.5"/><circle cx="724" cy="42" r="3.5"/><circle cx="734" cy="42" r="3.5"/><circle cx="744" cy="42" r="3.5"/><circle cx="754" cy="42" r="3.5"/><circle cx="764" cy="42" r="3.5"/><circle cx="774" cy="42" r="3.5"/><circle cx="784" cy="42" r="3.5"/><circle cx="794" cy="42" r="3.5"/><circle cx="804" cy="42" r="3.5"/><circle cx="814" cy="42" r="3.5"/><circle cx="824" cy="42" r="3.5"/><circle cx="834" cy="42" r="3.5"/><circle cx="844" cy="42" r="3.5"/><circle cx="854" cy="42" r="3.5"/><circle cx="864" cy="42" r="3.5"/><circle cx="874" cy="42" r="3.5"/><circle cx="884" cy="42" r="3.5"/>
  <circle cx="614" cy="52" r="3.5"/><circle cx="624" cy="52" r="3.5"/><circle cx="634" cy="52" r="3.5"/><circle cx="644" cy="52" r="3.5"/><circle cx="654" cy="52" r="3.5"/><circle cx="664" cy="52" r="3.5"/><circle cx="674" cy="52" r="3.5"/><circle cx="684" cy="52" r="3.5"/><circle cx="694" cy="52" r="3.5"/><circle cx="704" cy="52" r="3.5"/><circle cx="714" cy="52" r="3.5"/><circle cx="724" cy="52" r="3.5"/><circle cx="734" cy="52" r="3.5"/><circle cx="744" cy="52" r="3.5"/><circle cx="754" cy="52" r="3.5"/><circle cx="764" cy="52" r="3.5"/><circle cx="774" cy="52" r="3.5"/><circle cx="784" cy="52" r="3.5"/><circle cx="794" cy="52" r="3.5"/><circle cx="804" cy="52" r="3.5"/><circle cx="814" cy="52" r="3.5"/><circle cx="824" cy="52" r="3.5"/><circle cx="834" cy="52" r="3.5"/><circle cx="844" cy="52" r="3.5"/><circle cx="854" cy="52" r="3.5"/><circle cx="864" cy="52" r="3.5"/><circle cx="874" cy="52" r="3.5"/><circle cx="884" cy="52" r="3.5"/>
  <circle cx="614" cy="62" r="3.5"/><circle cx="624" cy="62" r="3.5"/><circle cx="634" cy="62" r="3.5"/><circle cx="644" cy="62" r="3.5"/><circle cx="654" cy="62" r="3.5"/><circle cx="664" cy="62" r="3.5"/><circle cx="674" cy="62" r="3.5"/><circle cx="684" cy="62" r="3.5"/><circle cx="694" cy="62" r="3.5"/><circle cx="704" cy="62" r="3.5"/><circle cx="714" cy="62" r="3.5"/><circle cx="724" cy="62" r="3.5"/><circle cx="734" cy="62" r="3.5"/><circle cx="744" cy="62" r="3.5"/><circle cx="754" cy="62" r="3.5"/><circle cx="764" cy="62" r="3.5"/><circle cx="774" cy="62" r="3.5"/><circle cx="784" cy="62" r="3.5"/><circle cx="794" cy="62" r="3.5"/><circle cx="804" cy="62" r="3.5"/><circle cx="814" cy="62" r="3.5"/><circle cx="824" cy="62" r="3.5"/><circle cx="834" cy="62" r="3.5"/><circle cx="844" cy="62" r="3.5"/><circle cx="854" cy="62" r="3.5"/><circle cx="864" cy="62" r="3.5"/><circle cx="874" cy="62" r="3.5"/><circle cx="884" cy="62" r="3.5"/>
  <circle cx="614" cy="72" r="3.5"/><circle cx="624" cy="72" r="3.5"/><circle cx="634" cy="72" r="3.5"/><circle cx="644" cy="72" r="3.5"/><circle cx="654" cy="72" r="3.5"/><circle cx="664" cy="72" r="3.5"/><circle cx="674" cy="72" r="3.5"/><circle cx="684" cy="72" r="3.5"/><circle cx="694" cy="72" r="3.5"/><circle cx="704" cy="72" r="3.5"/><circle cx="714" cy="72" r="3.5"/><circle cx="724" cy="72" r="3.5"/><circle cx="734" cy="72" r="3.5"/><circle cx="744" cy="72" r="3.5"/><circle cx="754" cy="72" r="3.5"/><circle cx="764" cy="72" r="3.5"/><circle cx="774" cy="72" r="3.5"/><circle cx="784" cy="72" r="3.5"/><circle cx="794" cy="72" r="3.5"/><circle cx="804" cy="72" r="3.5"/><circle cx="814" cy="72" r="3.5"/><circle cx="824" cy="72" r="3.5"/><circle cx="834" cy="72" r="3.5"/><circle cx="844" cy="72" r="3.5"/><circle cx="854" cy="72" r="3.5"/><circle cx="864" cy="72" r="3.5"/><circle cx="874" cy="72" r="3.5"/><circle cx="884" cy="72" r="3.5"/>
  <circle cx="614" cy="82" r="3.5"/><circle cx="624" cy="82" r="3.5"/><circle cx="634" cy="82" r="3.5"/><circle cx="644" cy="82" r="3.5"/><circle cx="654" cy="82" r="3.5"/><circle cx="664" cy="82" r="3.5"/><circle cx="674" cy="82" r="3.5"/><circle cx="684" cy="82" r="3.5"/><circle cx="694" cy="82" r="3.5"/><circle cx="704" cy="82" r="3.5"/><circle cx="714" cy="82" r="3.5"/><circle cx="724" cy="82" r="3.5"/><circle cx="734" cy="82" r="3.5"/><circle cx="744" cy="82" r="3.5"/><circle cx="754" cy="82" r="3.5"/><circle cx="764" cy="82" r="3.5"/><circle cx="774" cy="82" r="3.5"/><circle cx="784" cy="82" r="3.5"/><circle cx="794" cy="82" r="3.5"/><circle cx="804" cy="82" r="3.5"/><circle cx="814" cy="82" r="3.5"/><circle cx="824" cy="82" r="3.5"/><circle cx="834" cy="82" r="3.5"/><circle cx="844" cy="82" r="3.5"/><circle cx="854" cy="82" r="3.5"/><circle cx="864" cy="82" r="3.5"/><circle cx="874" cy="82" r="3.5"/><circle cx="884" cy="82" r="3.5"/>
  <circle cx="614" cy="92" r="3.5"/><circle cx="624" cy="92" r="3.5"/><circle cx="634" cy="92" r="3.5"/><circle cx="644" cy="92" r="3.5"/><circle cx="654" cy="92" r="3.5"/><circle cx="664" cy="92" r="3.5"/><circle cx="674" cy="92" r="3.5"/><circle cx="684" cy="92" r="3.5"/><circle cx="694" cy="92" r="3.5"/><circle cx="704" cy="92" r="3.5"/><circle cx="714" cy="92" r="3.5"/><circle cx="724" cy="92" r="3.5"/><circle cx="734" cy="92" r="3.5"/><circle cx="744" cy="92" r="3.5"/><circle cx="754" cy="92" r="3.5"/><circle cx="764" cy="92" r="3.5"/><circle cx="774" cy="92" r="3.5"/><circle cx="784" cy="92" r="3.5"/><circle cx="794" cy="92" r="3.5"/><circle cx="804" cy="92" r="3.5"/><circle cx="814" cy="92" r="3.5"/><circle cx="824" cy="92" r="3.5"/><circle cx="834" cy="92" r="3.5"/><circle cx="844" cy="92" r="3.5"/><circle cx="854" cy="92" r="3.5"/><circle cx="864" cy="92" r="3.5"/><circle cx="874" cy="92" r="3.5"/><circle cx="884" cy="92" r="3.5"/>
  <circle cx="614" cy="102" r="3.5"/><circle cx="624" cy="102" r="3.5"/><circle cx="634" cy="102" r="3.5"/><circle cx="644" cy="102" r="3.5"/><circle cx="654" cy="102" r="3.5"/><circle cx="664" cy="102" r="3.5"/><circle cx="674" cy="102" r="3.5"/><circle cx="684" cy="102" r="3.5"/><circle cx="694" cy="102" r="3.5"/><circle cx="704" cy="102" r="3.5"/><circle cx="714" cy="102" r="3.5"/><circle cx="724" cy="102" r="3.5"/><circle cx="734" cy="102" r="3.5"/><circle cx="744" cy="102" r="3.5"/><circle cx="754" cy="102" r="3.5"/><circle cx="764" cy="102" r="3.5"/><circle cx="774" cy="102" r="3.5"/><circle cx="784" cy="102" r="3.5"/><circle cx="794" cy="102" r="3.5"/><circle cx="804" cy="102" r="3.5"/><circle cx="814" cy="102" r="3.5"/><circle cx="824" cy="102" r="3.5"/><circle cx="834" cy="102" r="3.5"/><circle cx="844" cy="102" r="3.5"/><circle cx="854" cy="102" r="3.5"/><circle cx="864" cy="102" r="3.5"/><circle cx="874" cy="102" r="3.5"/><circle cx="884" cy="102" r="3.5"/>
  <circle cx="614" cy="112" r="3.5"/><circle cx="624" cy="112" r="3.5"/><circle cx="634" cy="112" r="3.5"/><circle cx="644" cy="112" r="3.5"/><circle cx="654" cy="112" r="3.5"/><circle cx="664" cy="112" r="3.5"/><circle cx="674" cy="112" r="3.5"/><circle cx="684" cy="112" r="3.5"/><circle cx="694" cy="112" r="3.5"/><circle cx="704" cy="112" r="3.5"/><circle cx="714" cy="112" r="3.5"/><circle cx="724" cy="112" r="3.5"/><circle cx="734" cy="112" r="3.5"/><circle cx="744" cy="112" r="3.5"/><circle cx="754" cy="112" r="3.5"/><circle cx="764" cy="112" r="3.5"/><circle cx="774" cy="112" r="3.5"/><circle cx="784" cy="112" r="3.5"/><circle cx="794" cy="112" r="3.5"/><circle cx="804" cy="112" r="3.5"/><circle cx="814" cy="112" r="3.5"/><circle cx="824" cy="112" r="3.5"/><circle cx="834" cy="112" r="3.5"/><circle cx="844" cy="112" r="3.5"/><circle cx="854" cy="112" r="3.5"/><circle cx="864" cy="112" r="3.5"/><circle cx="874" cy="112" r="3.5"/><circle cx="884" cy="112" r="3.5"/>
</g>

<!-- WHITE dots: Z (cols 0-8) + A (cols 10-18) — 2-stroke wide, shifted +50px to centre -->
<g transform="translate(40,10)">
<g fill="#FFFFFF">
  <!-- Z top bar: rows 0,1 → y=22,32  cols 0-8 → x=614..694 -->
  <circle cx="614" cy="22" r="3.5"/><circle cx="624" cy="22" r="3.5"/><circle cx="634" cy="22" r="3.5"/><circle cx="644" cy="22" r="3.5"/><circle cx="654" cy="22" r="3.5"/><circle cx="664" cy="22" r="3.5"/><circle cx="674" cy="22" r="3.5"/><circle cx="684" cy="22" r="3.5"/><circle cx="694" cy="22" r="3.5"/>
  <circle cx="614" cy="32" r="3.5"/><circle cx="624" cy="32" r="3.5"/><circle cx="634" cy="32" r="3.5"/><circle cx="644" cy="32" r="3.5"/><circle cx="654" cy="32" r="3.5"/><circle cx="664" cy="32" r="3.5"/><circle cx="674" cy="32" r="3.5"/><circle cx="684" cy="32" r="3.5"/><circle cx="694" cy="32" r="3.5"/>
  <!-- Z diagonal step 1: row 2 → y=42  cols 6,7,8 → x=674,684,694 -->
  <circle cx="674" cy="42" r="3.5"/><circle cx="684" cy="42" r="3.5"/><circle cx="694" cy="42" r="3.5"/>
  <!-- Z diagonal step 2: row 3 → y=52  cols 4,5,6 → x=654,664,674 -->
  <circle cx="654" cy="52" r="3.5"/><circle cx="664" cy="52" r="3.5"/><circle cx="674" cy="52" r="3.5"/>
  <!-- Z diagonal centre: row 4 → y=62  cols 3,4,5 → x=644,654,664 -->
  <circle cx="644" cy="62" r="3.5"/><circle cx="654" cy="62" r="3.5"/><circle cx="664" cy="62" r="3.5"/>
  <!-- Z diagonal step 4: row 5 → y=72  cols 2,3,4 → x=634,644,654 -->
  <circle cx="634" cy="72" r="3.5"/><circle cx="644" cy="72" r="3.5"/><circle cx="654" cy="72" r="3.5"/>
  <!-- Z diagonal step 5: row 6 → y=82  cols 0,1,2 → x=614,624,634 -->
  <circle cx="614" cy="82" r="3.5"/><circle cx="624" cy="82" r="3.5"/><circle cx="634" cy="82" r="3.5"/>
  <!-- Z bottom bar: rows 7,8 → y=92,102  cols 0-8, last 2 red -->
  <circle cx="614" cy="92" r="3.5"/><circle cx="624" cy="92" r="3.5"/><circle cx="634" cy="92" r="3.5"/><circle cx="644" cy="92" r="3.5"/><circle cx="654" cy="92" r="3.5"/><circle cx="664" cy="92" r="3.5"/><circle cx="674" cy="92" r="3.5"/><circle cx="684" cy="92" r="3.5"/><circle cx="694" cy="92" r="3.5"/>
  <circle cx="614" cy="102" r="3.5"/><circle cx="624" cy="102" r="3.5"/><circle cx="634" cy="102" r="3.5"/><circle cx="644" cy="102" r="3.5"/><circle cx="654" cy="102" r="3.5"/><circle cx="664" cy="102" r="3.5"/><circle cx="674" cy="102" r="3.5"/><circle cx="684" cy="102" r="3.5" fill="#FF2E2E"/><circle cx="694" cy="102" r="3.5" fill="#FF2E2E"/>

  <!-- A top peak: row 0 → y=22  cols 13,14,15 → x=744,754,764  (2-wide: row 1 too) -->
  <circle cx="744" cy="22" r="3.5"/><circle cx="754" cy="22" r="3.5"/><circle cx="764" cy="22" r="3.5"/>
  <!-- A peak row 1 → y=32  cols 12-15 → x=734,744,754,764,774 -->
  <circle cx="734" cy="32" r="3.5"/><circle cx="744" cy="32" r="3.5"/><circle cx="754" cy="32" r="3.5"/><circle cx="764" cy="32" r="3.5"/><circle cx="774" cy="32" r="3.5"/>
  <!-- A sides row 2,3 → y=42,52  cols 10,11 and 17,18 → x=714,724 and 784,794 -->
  <circle cx="714" cy="42" r="3.5"/><circle cx="724" cy="42" r="3.5"/><circle cx="784" cy="42" r="3.5"/><circle cx="794" cy="42" r="3.5"/>
  <circle cx="714" cy="52" r="3.5"/><circle cx="724" cy="52" r="3.5"/><circle cx="784" cy="52" r="3.5"/><circle cx="794" cy="52" r="3.5"/>
  <!-- A 2-wide crossbar rows 4,5 → y=62,72  cols 10-18 all -->
  <circle cx="714" cy="62" r="3.5"/><circle cx="724" cy="62" r="3.5"/><circle cx="734" cy="62" r="3.5"/><circle cx="744" cy="62" r="3.5"/><circle cx="754" cy="62" r="3.5"/><circle cx="764" cy="62" r="3.5"/><circle cx="774" cy="62" r="3.5"/><circle cx="784" cy="62" r="3.5"/><circle cx="794" cy="62" r="3.5"/>
  <circle cx="714" cy="72" r="3.5"/><circle cx="724" cy="72" r="3.5"/><circle cx="734" cy="72" r="3.5"/><circle cx="744" cy="72" r="3.5"/><circle cx="754" cy="72" r="3.5"/><circle cx="764" cy="72" r="3.5"/><circle cx="774" cy="72" r="3.5"/><circle cx="784" cy="72" r="3.5"/><circle cx="794" cy="72" r="3.5"/>
  <!-- A sides rows 6,7,8 → y=82,92,102 -->
  <circle cx="714" cy="82" r="3.5"/><circle cx="724" cy="82" r="3.5"/><circle cx="784" cy="82" r="3.5"/><circle cx="794" cy="82" r="3.5"/>
  <circle cx="714" cy="92" r="3.5"/><circle cx="724" cy="92" r="3.5"/><circle cx="784" cy="92" r="3.5"/><circle cx="794" cy="92" r="3.5"/>
  <circle cx="714" cy="102" r="3.5"/><circle cx="724" cy="102" r="3.5"/><circle cx="784" cy="102" r="3.5" fill="#FF2E2E"/><circle cx="794" cy="102" r="3.5" fill="#FF2E2E"/>
</g>
</g>
<!-- end ZA letters -->



<!-- ═══════════════════════════════════════════════════════
     W3 — LEFT PANEL  x=16 y=140 w=440 h=300
     ═══════════════════════════════════════════════════════ -->
<rect x="16" y="140" width="440" height="300" rx="16" class="w"/>
<g clip-path="url(#c-lft)">
  <text x="36" y="168" class="lbl">LANGUAGES</text>
  <line x1="36" y1="174" x2="440" y2="174" class="ln"/>
  <text x="36"  y="190" class="lbl">PROGRAMMING</text>
  <text x="36"  y="206" class="val">Python  ·  Java  ·  C  ·  JS</text>
  <text x="238" y="190" class="lbl">MARKUP / CONFIG</text>
  <text x="238" y="206" class="val">HTML  ·  CSS  ·  JSON  ·  YAML</text>
  <line x1="36" y1="218" x2="440" y2="218" class="ln"/>
  <text x="36"  y="232" class="lbl">SPOKEN</text>
  <text x="36"  y="248" class="val">English  ·  Hindi  ·  Urdu</text>
  <line x1="36" y1="260" x2="440" y2="260" class="ln"/>
  <text x="36"  y="274" class="lbl">UPTIME</text>
  <text x="36"  y="292" class="d-md" id="age_data">-- years, -- months, -- days</text>
  <line x1="36" y1="304" x2="440" y2="304" class="ln"/>
  <text x="36"  y="318" class="lbl">FOCUS</text>
  <text x="36"  y="334" class="val">CTF  ·  Web Development  ·  GenAI</text>
  <line x1="36" y1="346" x2="440" y2="346" class="ln"/>
  <text x="36"  y="360" class="lbl">PERSONAL</text>
  <text x="36"  y="376" class="val">Cooking  ·  Sleeping</text>
</g>

<!-- ═══════════════════════════════════════════════════════
     W4 — RIGHT PANEL  x=468 y=140 w=416 h=300
     ═══════════════════════════════════════════════════════ -->
<rect x="468" y="140" width="416" height="300" rx="16" class="w"/>
<g clip-path="url(#c-rgt)">
  <text x="488" y="168" class="lbl">GITHUB ANALYTICS</text>
  <line x1="488" y1="174" x2="868" y2="174" class="ln"/>
  <text x="488" y="192" class="lbl">COMMITS</text>
  <text x="488" y="218" class="d-lg" id="commit_data">----</text>
  <line x1="488" y1="228" x2="868" y2="228" class="ln"/>
  <text x="488" y="246" class="lbl">REPOS</text>
  <text x="488" y="270" class="d-lg" id="repo_data">--</text>
  <line x1="678" y1="234" x2="678" y2="280" class="ln"/>
  <text x="698" y="246" class="lbl">STARS</text>
  <text x="698" y="270" class="d-lg" id="star_data">--</text>
  <line x1="488" y1="282" x2="868" y2="282" class="ln"/>
  <text x="488" y="300" class="lbl">FOLLOWERS</text>
  <text x="488" y="324" class="d-lg" id="follower_data">--</text>
  <line x1="678" y1="288" x2="678" y2="334" class="ln"/>
  <text x="698" y="300" class="lbl">CONTRIB</text>
  <text x="698" y="324" class="d-lg" id="contrib_data">--</text>
  <line x1="488" y1="336" x2="868" y2="336" class="ln"/>
  <text x="488" y="354" class="lbl">LINES OF CODE</text>
  <text x="488" y="378" class="d-md" id="loc_data">-------</text>
  <text x="488" y="402" font-family="'Inter',sans-serif" font-size="10" font-weight="600" fill="#3FB950" id="loc_add">0</text>
  <text x="508" y="402" font-family="'Inter',sans-serif" font-size="10" fill="#3FB950">++</text>
  <text x="548" y="402" font-family="'Inter',sans-serif" font-size="10" font-weight="600" fill="#F85149" id="loc_del">0</text>
  <text x="568" y="402" font-family="'Inter',sans-serif" font-size="10" fill="#F85149">--</text>
  <text x="488" y="424" class="lbl" id="acc_date">SINCE --</text>
</g>

<!-- ═══════════════════════════════════════════════════════
     W5 — FOOTER  x=16 y=452 w=868 h=60
     ═══════════════════════════════════════════════════════ -->
<rect x="16" y="452" width="868" height="60" rx="16" class="w"/>
<g clip-path="url(#c-ftr)">
  <text x="44"  y="474" class="lbl">EMAIL</text>
  <text x="44"  y="497" class="d-sm">legitzeo@gmail.com</text>
  <line x1="305" y1="460" x2="305" y2="504" class="ln"/>
  <text x="325" y="474" class="lbl">LINKEDIN</text>
  <text x="325" y="497" class="d-sm">ahmxd-zaid</text>
  <line x1="594" y1="460" x2="594" y2="504" class="ln"/>
  <text x="614" y="474" class="lbl">GITHUB</text>
  <text x="614" y="497" class="d-sm">zeofr</text>
</g>

</svg>
